# Blender v2.76 (sub 0) OBJ File: 'grate02.blend'
# www.blender.org
o Mesh
v -6.000000 0.000000 4.000000
v 6.000000 0.000000 4.000000
v -6.000000 0.000000 -4.000000
v 6.000000 0.000000 -4.000000
v -6.000000 0.000000 -3.111111
v -6.000000 0.000000 -2.222222
v -6.000000 0.000000 -1.333333
v -6.000000 0.000000 -0.444444
v -6.000000 0.000000 0.444445
v -6.000000 0.000000 1.333333
v -6.000000 0.000000 2.222222
v -6.000000 0.000000 3.111111
v -4.666667 0.000000 4.000000
v -3.333333 0.000000 4.000000
v -2.000000 0.000000 4.000000
v -0.666667 0.000000 4.000000
v 0.666667 0.000000 4.000000
v 2.000000 0.000000 4.000000
v 3.333333 0.000000 4.000000
v 4.666667 0.000000 4.000000
v 6.000000 0.000000 3.111111
v 6.000000 0.000000 2.222222
v 6.000000 0.000000 1.333333
v 6.000000 0.000000 0.444444
v 6.000000 0.000000 -0.444445
v 6.000000 0.000000 -1.333333
v 6.000000 0.000000 -2.222222
v 6.000000 0.000000 -3.111111
v 4.666667 0.000000 -4.000000
v 3.333333 0.000000 -4.000000
v 2.000000 0.000000 -4.000000
v 0.666667 0.000000 -4.000000
v -0.666667 0.000000 -4.000000
v -2.000000 0.000000 -4.000000
v -3.333333 0.000000 -4.000000
v -4.666667 0.000000 -4.000000
v -4.666667 -0.017646 3.111111
v -4.666667 0.530690 2.222222
v -4.666667 1.141042 1.333333
v -4.666667 0.613458 0.444444
v -4.666667 0.612082 -0.444445
v -4.666667 1.184896 -1.333333
v -4.666667 0.736768 -2.222222
v -4.666667 0.022781 -3.111111
v -3.333333 -0.023467 3.111111
v -3.333333 0.895332 2.222222
v -3.333333 0.184356 -3.111111
v -2.000000 -0.017646 3.111111
v -2.000000 0.670096 -2.222222
v -2.000000 0.019774 -3.111111
v -0.666667 0.000000 3.111111
v -0.666667 0.053136 2.222222
v -0.666667 1.097025 -2.222222
v -0.666667 0.056377 -3.111111
v 0.666667 0.000229 3.111111
v 0.666667 0.619869 2.222222
v 0.666667 0.689094 -2.222222
v 0.666667 0.029509 -3.111111
v 2.000000 0.084158 3.111111
v 2.000000 1.240924 2.222222
v 2.000000 0.124279 -3.111111
v 3.333333 0.080931 3.111111
v 3.333333 0.817586 2.222222
v 3.333333 1.194216 0.444444
v 3.333333 0.757627 -0.444445
v 3.333333 1.375257 -1.333333
v 3.333333 0.767434 -2.222222
v 3.333333 0.032484 -3.111111
v 4.666667 0.015628 3.111111
v 4.666667 0.080931 2.222222
v 4.666667 0.084158 1.333333
v 4.666667 0.068573 0.444444
v 4.666667 0.032687 -0.444445
v 4.666667 0.124279 -1.333333
v 4.666667 0.032484 -2.222222
v 4.666667 0.000000 -3.111111
vt 0.991732 0.860301
vt 0.990158 0.970792
vt 0.879606 0.969154
vt 0.026925 0.831404
vt 0.133795 0.838031
vt 0.126422 0.945586
vt 0.242726 0.845034
vt 0.232938 0.953906
vt 0.347296 0.860292
vt 0.340197 0.964180
vt 0.450358 0.863795
vt 0.446579 0.969119
vt 0.553848 0.867046
vt 0.553365 0.972087
vt 0.659106 0.861611
vt 0.661719 0.970373
vt 0.768999 0.857852
vt 0.769683 0.968445
vt 0.880619 0.858359
vt 0.118870 0.001691
vt 0.117370 0.107349
vt 0.010978 0.106201
vt 0.124898 0.222988
vt 0.009052 0.212350
vt 0.135675 0.314868
vt 0.000000 0.321105
vt 0.132910 0.417415
vt 0.132065 0.513759
vt 0.012998 0.521561
vt 0.178252 0.609585
vt 0.021437 0.622681
vt 0.161511 0.711318
vt 0.032826 0.726239
vt 0.223574 0.003210
vt 0.221423 0.106532
vt 0.221126 0.244476
vt 0.327630 0.006639
vt 0.325246 0.110964
vt 0.353690 0.737808
vt 0.431667 0.009133
vt 0.430683 0.114059
vt 0.423450 0.213484
vt 0.456013 0.712619
vt 0.534607 0.009530
vt 0.533931 0.112576
vt 0.535913 0.233308
vt 0.554561 0.743680
vt 0.638871 0.010591
vt 0.637140 0.116415
vt 0.637644 0.268714
vt 0.744127 0.010835
vt 0.745578 0.118458
vt 0.733640 0.252126
vt 0.748011 0.723948
vt 0.849796 0.006453
vt 0.855220 0.113672
vt 0.863271 0.223084
vt 0.878459 0.328439
vt 0.889033 0.430184
vt 0.732737 0.442345
vt 0.895422 0.529892
vt 0.778149 0.535343
vt 0.888830 0.636366
vt 0.882655 0.746780
vt 0.955986 0.000002
vt 0.962438 0.106192
vt 0.970861 0.211859
vt 0.983109 0.317073
vt 0.992955 0.422215
vt 1.000000 0.528467
vt 0.998784 0.639910
vt 0.994224 0.749808
vt 0.019520 0.938242
vt 0.012669 0.000000
vt 0.008223 0.423263
vt 0.725002 0.618837
vn 0.000000 1.000000 0.000000
vn -0.011700 0.999900 -0.004800
vn -0.116000 0.948500 -0.294800
vn -0.005300 0.999800 -0.020800
vn 0.001100 0.940300 -0.340300
vn 0.000700 0.990600 -0.136700
vn 0.024100 0.942600 -0.332900
vn -0.008600 0.999500 -0.029900
vn -0.003000 0.917800 -0.397000
vn 0.000000 0.998000 -0.063300
vn -0.012100 0.941700 -0.336200
vn 0.006300 0.999200 -0.038800
vn -0.001100 0.954400 -0.298400
vn -0.000700 0.995000 -0.099800
vn 0.102200 0.947100 -0.304100
vn 0.007600 0.999500 -0.029700
vn 0.012100 0.999800 -0.018300
vn 0.004100 0.999800 -0.016100
vn -0.050500 0.975800 0.212700
vn 0.009100 0.999900 -0.003700
vn -0.233500 0.796600 0.557600
vn -0.355800 0.910800 0.209500
vn -0.489200 0.858400 0.154300
vn -0.577500 0.812500 -0.079300
vn -0.499100 0.851300 -0.162000
vn -0.503900 0.846400 0.172300
vn -0.417400 0.908700 -0.000200
vn -0.605600 0.791800 0.078700
vn -0.587300 0.804900 0.085000
vn -0.352900 0.780000 -0.516700
vn -0.410900 0.888400 -0.204600
vn 0.000000 0.999700 -0.023900
vn -0.030200 0.935200 0.352700
vn -0.145000 0.721800 0.676700
vn -0.004100 0.999800 -0.016100
vn -0.007800 0.992600 0.121000
vn -0.040700 0.759800 -0.648800
vn -0.067500 0.994100 0.084700
vn -0.251200 0.966200 0.057700
vn -0.003700 0.649500 -0.760300
vn -0.000000 1.000000 0.000200
vn -0.019500 0.951700 0.306400
vn -0.165300 0.806400 0.567700
vn 0.051200 0.756100 -0.652500
vn -0.019600 0.996900 0.076700
vn -0.066900 0.887900 0.455200
vn -0.075600 0.648200 0.757700
vn 0.016000 0.996800 0.077700
vn 0.121900 0.927800 0.352500
vn 0.338600 0.775900 0.532200
vn 0.419800 0.755200 -0.503400
vn 0.003700 0.999900 0.014300
vn 0.030200 0.998500 0.045400
vn 0.208800 0.972400 0.103500
vn 0.277700 0.960600 -0.006900
vn 0.365900 0.930400 -0.021300
vn 0.560100 0.802900 -0.204200
vn 0.299000 0.954200 -0.010200
vn 0.555500 0.831400 -0.013300
vn 0.337400 0.941400 0.000800
vn 0.194300 0.972800 -0.125900
vn 0.008000 0.999900 0.003300
vn 0.046100 0.998800 0.014400
vn 0.059300 0.998200 -0.003300
vn 0.051300 0.998700 0.000000
vn 0.032900 0.999400 -0.007500
vn 0.050100 0.998700 -0.000000
vn 0.016700 0.999800 -0.006800
vn -0.418000 0.908400 0.000000
vn 0.684200 0.729200 0.002200
s 1
f 28/1/1 4/2/1 29/3/1
f 5/4/2 44/5/3 36/6/4
f 44/5/3 47/7/5 35/8/6
f 50/9/7 34/10/8 35/8/6
f 54/11/9 33/12/10 34/10/8
f 54/11/9 58/13/11 32/14/12
f 58/13/11 61/15/13 31/16/14
f 68/17/15 30/18/16 31/16/14
f 76/19/17 29/3/1 30/18/16
f 13/20/18 37/21/19 12/22/20
f 37/21/19 38/23/21 11/24/22
f 11/24/22 38/23/21 39/25/23
f 10/26/24 39/25/23 40/27/25
f 40/27/25 41/28/26 8/29/27
f 41/28/26 42/30/28 7/31/29
f 42/30/28 43/32/30 6/33/31
f 6/33/31 43/32/30 44/5/3
f 14/34/32 45/35/33 37/21/19
f 45/35/33 46/36/34 38/23/21
f 14/34/32 15/37/35 48/38/36
f 49/39/37 50/9/7 47/7/5
f 15/37/35 16/40/1 51/41/38
f 48/38/36 51/41/38 52/42/39
f 49/39/37 53/43/40 54/11/9
f 17/44/41 55/45/42 51/41/38
f 51/41/38 55/45/42 56/46/43
f 57/47/44 58/13/11 54/11/9
f 18/48/45 59/49/46 55/45/42
f 59/49/46 60/50/47 56/46/43
f 19/51/48 62/52/49 59/49/46
f 62/52/49 63/53/50 60/50/47
f 67/54/51 68/17/15 61/15/13
f 19/51/48 20/55/52 69/56/53
f 62/52/49 69/56/53 70/57/54
f 71/58/55 72/59/56 64/60/57
f 64/60/57 72/59/56 73/61/58
f 65/62/59 73/61/58 74/63/60
f 74/63/60 75/64/61 67/54/51
f 75/64/61 76/19/17 68/17/15
f 20/55/52 2/65/1 21/66/62
f 69/56/53 21/66/62 22/67/63
f 22/67/63 23/68/64 71/58/55
f 23/68/64 24/69/65 72/59/56
f 72/59/56 24/69/65 25/70/66
f 73/61/58 25/70/66 26/71/67
f 26/71/67 27/72/68 75/64/61
f 27/72/68 28/1/1 76/19/17
f 76/19/17 28/1/1 29/3/1
f 3/73/1 5/4/2 36/6/4
f 36/6/4 44/5/3 35/8/6
f 47/7/5 50/9/7 35/8/6
f 50/9/7 54/11/9 34/10/8
f 33/12/10 54/11/9 32/14/12
f 32/14/12 58/13/11 31/16/14
f 61/15/13 68/17/15 31/16/14
f 68/17/15 76/19/17 30/18/16
f 1/74/1 13/20/18 12/22/20
f 12/22/20 37/21/19 11/24/22
f 10/26/24 11/24/22 39/25/23
f 9/75/69 10/26/24 40/27/25
f 9/75/69 40/27/25 8/29/27
f 8/29/27 41/28/26 7/31/29
f 7/31/29 42/30/28 6/33/31
f 5/4/2 6/33/31 44/5/3
f 13/20/18 14/34/32 37/21/19
f 37/21/19 45/35/33 38/23/21
f 44/5/3 43/32/30 47/7/5
f 45/35/33 14/34/32 48/38/36
f 48/38/36 15/37/35 51/41/38
f 50/9/7 49/39/37 54/11/9
f 16/40/1 17/44/41 51/41/38
f 52/42/39 51/41/38 56/46/43
f 53/43/40 57/47/44 54/11/9
f 17/44/41 18/48/45 55/45/42
f 55/45/42 59/49/46 56/46/43
f 58/13/11 57/47/44 61/15/13
f 18/48/45 19/51/48 59/49/46
f 59/49/46 62/52/49 60/50/47
f 62/52/49 19/51/48 69/56/53
f 63/53/50 62/52/49 70/57/54
f 65/62/59 64/60/57 73/61/58
f 66/76/70 65/62/59 74/63/60
f 66/76/70 74/63/60 67/54/51
f 67/54/51 75/64/61 68/17/15
f 69/56/53 20/55/52 21/66/62
f 70/57/54 69/56/53 22/67/63
f 70/57/54 22/67/63 71/58/55
f 71/58/55 23/68/64 72/59/56
f 73/61/58 72/59/56 25/70/66
f 74/63/60 73/61/58 26/71/67
f 74/63/60 26/71/67 75/64/61
f 75/64/61 27/72/68 76/19/17
f 45/35/33 48/38/36 46/36/34
f 38/23/21 46/36/34 39/25/23
f 71/58/55 63/53/50 70/57/54
